<mxfile host="65bd71144e">
    <diagram id="7cTXVbluywycEbsM0X0C" name="トップページ-記事作成">
        <mxGraphModel dx="1482" dy="807" grid="1" gridSize="10" guides="1" tooltips="1" connect="1" arrows="1" fold="1" page="1" pageScale="1" pageWidth="1654" pageHeight="1169" math="0" shadow="0">
            <root>
                <mxCell id="0"/>
                <mxCell id="1" parent="0"/>
                <mxCell id="173" value="" style="rounded=0;whiteSpace=wrap;html=1;fillColor=none;" parent="1" vertex="1">
                    <mxGeometry x="2892" y="504.5" width="420" height="294" as="geometry"/>
                </mxCell>
                <mxCell id="150" value="" style="rounded=0;whiteSpace=wrap;html=1;fillColor=none;" parent="1" vertex="1">
                    <mxGeometry x="2200" y="362.5" width="420" height="520" as="geometry"/>
                </mxCell>
                <mxCell id="125" value="" style="rounded=0;whiteSpace=wrap;html=1;fillColor=none;" parent="1" vertex="1">
                    <mxGeometry x="1520" y="365" width="410" height="434.5" as="geometry"/>
                </mxCell>
                <mxCell id="54" value="" style="rounded=0;whiteSpace=wrap;html=1;fillColor=none;" parent="1" vertex="1">
                    <mxGeometry x="77.5" y="365.5" width="736" height="640" as="geometry"/>
                </mxCell>
                <mxCell id="2" value="ロゴ" style="rounded=0;whiteSpace=wrap;html=1;" parent="1" vertex="1">
                    <mxGeometry x="97.5" y="385.5" width="40" height="40" as="geometry"/>
                </mxCell>
                <mxCell id="4" value="Computing Atman" style="text;html=1;strokeColor=none;fillColor=none;align=left;verticalAlign=middle;whiteSpace=wrap;rounded=0;fontStyle=1;fontSize=17;" parent="1" vertex="1">
                    <mxGeometry x="147.5" y="390.5" width="180" height="30" as="geometry"/>
                </mxCell>
                <mxCell id="5" value="🔍Search..." style="rounded=1;whiteSpace=wrap;html=1;align=left;spacingLeft=10;" parent="1" vertex="1">
                    <mxGeometry x="377.5" y="393" width="130" height="25" as="geometry"/>
                </mxCell>
                <mxCell id="8" value="GithHub&lt;br&gt;Icon" style="ellipse;html=1;aspect=fixed;" parent="1" vertex="1">
                    <mxGeometry x="537.5" y="390.5" width="30" height="30" as="geometry"/>
                </mxCell>
                <mxCell id="9" value="X&lt;br&gt;Icon" style="ellipse;html=1;aspect=fixed;" parent="1" vertex="1">
                    <mxGeometry x="597.5" y="390.5" width="30" height="30" as="geometry"/>
                </mxCell>
                <mxCell id="10" value="モード&lt;br style=&quot;font-size: 12px;&quot;&gt;切替" style="ellipse;html=1;aspect=fixed;fontSize=12;verticalAlign=middle;" parent="1" vertex="1">
                    <mxGeometry x="647.5" y="390.5" width="30" height="30" as="geometry"/>
                </mxCell>
                <mxCell id="11" value="Log in" style="rounded=1;html=1;shadow=0;dashed=0;whiteSpace=wrap;fontSize=10;fillColor=#666666;align=center;strokeColor=#4D4D4D;fontColor=#ffffff;" parent="1" vertex="1">
                    <mxGeometry x="697.5" y="395.5" width="90" height="20" as="geometry"/>
                </mxCell>
                <mxCell id="12" value="" style="strokeWidth=1;html=1;shadow=0;dashed=0;shape=mxgraph.android.rrect;rSize=0;fillColor=none;strokeColor=none;fontSize=15;fontStyle=0" parent="1" vertex="1">
                    <mxGeometry x="97.5" y="455.5" width="510" height="30" as="geometry"/>
                </mxCell>
                <mxCell id="13" value="Tags" style="strokeWidth=1;html=1;shadow=0;dashed=0;shape=mxgraph.android.anchor;fontStyle=0;fontColor=#666666;fontSize=15;" parent="12" vertex="1">
                    <mxGeometry x="101" width="80" height="30" as="geometry"/>
                </mxCell>
                <mxCell id="16" value="About" style="strokeWidth=1;html=1;shadow=0;dashed=0;shape=mxgraph.android.anchor;fontStyle=0;fontColor=#666666;fontSize=15;" parent="12" vertex="1">
                    <mxGeometry x="405.3846153846154" width="80" height="30" as="geometry"/>
                </mxCell>
                <mxCell id="14" value="Blog" style="strokeWidth=1;html=1;shadow=0;dashed=0;shape=mxgraph.android.rrect;rSize=0;fontStyle=0;fillColor=none;strokeColor=none;fontColor=#666666;fontSize=15;" parent="12" vertex="1">
                    <mxGeometry width="80" height="30" as="geometry"/>
                </mxCell>
                <mxCell id="15" value="" style="strokeWidth=1;html=1;shadow=0;dashed=0;shape=mxgraph.android.rrect;rSize=0;fillColor=#33b5e5;strokeColor=none;fontSize=17;" parent="14" vertex="1">
                    <mxGeometry y="27.000000000000007" width="80" height="3" as="geometry"/>
                </mxCell>
                <mxCell id="24" value="Tech" style="strokeWidth=1;html=1;shadow=0;dashed=0;shape=mxgraph.android.anchor;fontStyle=0;fontColor=#666666;fontSize=15;" parent="12" vertex="1">
                    <mxGeometry x="203" width="80" height="30" as="geometry"/>
                </mxCell>
                <mxCell id="17" value="App" style="strokeWidth=1;html=1;shadow=0;dashed=0;shape=mxgraph.android.anchor;fontStyle=0;fontColor=#666666;fontSize=15;" parent="12" vertex="1">
                    <mxGeometry x="304" width="80" height="30" as="geometry"/>
                </mxCell>
                <mxCell id="28" value="" style="group" parent="1" vertex="1" connectable="0">
                    <mxGeometry x="107.5" y="571" width="329" height="60" as="geometry"/>
                </mxCell>
                <mxCell id="25" value="絵文字" style="ellipse;whiteSpace=wrap;html=1;aspect=fixed;fontSize=15;fillColor=none;" parent="28" vertex="1">
                    <mxGeometry y="5" width="50" height="50" as="geometry"/>
                </mxCell>
                <mxCell id="26" value="{タイトル}" style="text;html=1;strokeColor=none;fillColor=none;align=left;verticalAlign=middle;whiteSpace=wrap;rounded=0;fontSize=13;" parent="28" vertex="1">
                    <mxGeometry x="69" width="260" height="30" as="geometry"/>
                </mxCell>
                <mxCell id="27" value="@{タグ}　{更新日 YYYY/MM/DD}" style="text;html=1;strokeColor=none;fillColor=none;align=left;verticalAlign=middle;whiteSpace=wrap;rounded=0;fontSize=13;" parent="28" vertex="1">
                    <mxGeometry x="69" y="30" width="260" height="30" as="geometry"/>
                </mxCell>
                <mxCell id="29" value="" style="group" parent="1" vertex="1" connectable="0">
                    <mxGeometry x="487.5" y="571" width="329" height="60" as="geometry"/>
                </mxCell>
                <mxCell id="30" value="絵文字" style="ellipse;whiteSpace=wrap;html=1;aspect=fixed;fontSize=15;fillColor=none;" parent="29" vertex="1">
                    <mxGeometry y="5" width="50" height="50" as="geometry"/>
                </mxCell>
                <mxCell id="31" value="{タイトル}" style="text;html=1;strokeColor=none;fillColor=none;align=left;verticalAlign=middle;whiteSpace=wrap;rounded=0;fontSize=13;" parent="29" vertex="1">
                    <mxGeometry x="69" width="260" height="30" as="geometry"/>
                </mxCell>
                <mxCell id="32" value="@{タグ}　{更新日 YYYY/MM/DD}" style="text;html=1;strokeColor=none;fillColor=none;align=left;verticalAlign=middle;whiteSpace=wrap;rounded=0;fontSize=13;" parent="29" vertex="1">
                    <mxGeometry x="69" y="30" width="260" height="30" as="geometry"/>
                </mxCell>
                <mxCell id="33" value="" style="group" parent="1" vertex="1" connectable="0">
                    <mxGeometry x="107.5" y="651" width="329" height="60" as="geometry"/>
                </mxCell>
                <mxCell id="34" value="絵文字" style="ellipse;whiteSpace=wrap;html=1;aspect=fixed;fontSize=15;fillColor=none;" parent="33" vertex="1">
                    <mxGeometry y="5" width="50" height="50" as="geometry"/>
                </mxCell>
                <mxCell id="35" value="{タイトル}" style="text;html=1;strokeColor=none;fillColor=none;align=left;verticalAlign=middle;whiteSpace=wrap;rounded=0;fontSize=13;" parent="33" vertex="1">
                    <mxGeometry x="69" width="260" height="30" as="geometry"/>
                </mxCell>
                <mxCell id="36" value="@{タグ}　{更新日 YYYY/MM/DD}" style="text;html=1;strokeColor=none;fillColor=none;align=left;verticalAlign=middle;whiteSpace=wrap;rounded=0;fontSize=13;" parent="33" vertex="1">
                    <mxGeometry x="69" y="30" width="260" height="30" as="geometry"/>
                </mxCell>
                <mxCell id="37" value="" style="group" parent="1" vertex="1" connectable="0">
                    <mxGeometry x="487.5" y="651" width="329" height="60" as="geometry"/>
                </mxCell>
                <mxCell id="38" value="絵文字" style="ellipse;whiteSpace=wrap;html=1;aspect=fixed;fontSize=15;fillColor=none;" parent="37" vertex="1">
                    <mxGeometry y="5" width="50" height="50" as="geometry"/>
                </mxCell>
                <mxCell id="39" value="{タイトル}" style="text;html=1;strokeColor=none;fillColor=none;align=left;verticalAlign=middle;whiteSpace=wrap;rounded=0;fontSize=13;" parent="37" vertex="1">
                    <mxGeometry x="69" width="260" height="30" as="geometry"/>
                </mxCell>
                <mxCell id="40" value="@{タグ}　{更新日 YYYY/MM/DD}" style="text;html=1;strokeColor=none;fillColor=none;align=left;verticalAlign=middle;whiteSpace=wrap;rounded=0;fontSize=13;" parent="37" vertex="1">
                    <mxGeometry x="69" y="30" width="260" height="30" as="geometry"/>
                </mxCell>
                <mxCell id="41" value="" style="group" parent="1" vertex="1" connectable="0">
                    <mxGeometry x="107.5" y="736" width="329" height="60" as="geometry"/>
                </mxCell>
                <mxCell id="42" value="絵文字" style="ellipse;whiteSpace=wrap;html=1;aspect=fixed;fontSize=15;fillColor=none;" parent="41" vertex="1">
                    <mxGeometry y="5" width="50" height="50" as="geometry"/>
                </mxCell>
                <mxCell id="43" value="{タイトル}" style="text;html=1;strokeColor=none;fillColor=none;align=left;verticalAlign=middle;whiteSpace=wrap;rounded=0;fontSize=13;" parent="41" vertex="1">
                    <mxGeometry x="69" width="260" height="30" as="geometry"/>
                </mxCell>
                <mxCell id="44" value="@{タグ}　{更新日 YYYY/MM/DD}" style="text;html=1;strokeColor=none;fillColor=none;align=left;verticalAlign=middle;whiteSpace=wrap;rounded=0;fontSize=13;" parent="41" vertex="1">
                    <mxGeometry x="69" y="30" width="260" height="30" as="geometry"/>
                </mxCell>
                <mxCell id="45" value="" style="group" parent="1" vertex="1" connectable="0">
                    <mxGeometry x="487.5" y="736" width="329" height="60" as="geometry"/>
                </mxCell>
                <mxCell id="46" value="絵文字" style="ellipse;whiteSpace=wrap;html=1;aspect=fixed;fontSize=15;fillColor=none;" parent="45" vertex="1">
                    <mxGeometry y="5" width="50" height="50" as="geometry"/>
                </mxCell>
                <mxCell id="47" value="{タイトル}" style="text;html=1;strokeColor=none;fillColor=none;align=left;verticalAlign=middle;whiteSpace=wrap;rounded=0;fontSize=13;" parent="45" vertex="1">
                    <mxGeometry x="69" width="260" height="30" as="geometry"/>
                </mxCell>
                <mxCell id="48" value="@{タグ}　{更新日 YYYY/MM/DD}" style="text;html=1;strokeColor=none;fillColor=none;align=left;verticalAlign=middle;whiteSpace=wrap;rounded=0;fontSize=13;" parent="45" vertex="1">
                    <mxGeometry x="69" y="30" width="260" height="30" as="geometry"/>
                </mxCell>
                <mxCell id="50" value="Latest" style="text;html=1;strokeColor=none;fillColor=none;align=left;verticalAlign=middle;whiteSpace=wrap;rounded=0;fontStyle=1;fontSize=17;" parent="1" vertex="1">
                    <mxGeometry x="107.5" y="515.5" width="80" height="30" as="geometry"/>
                </mxCell>
                <mxCell id="51" value="&amp;lt; Previous 1 ・・・ 4 Next &amp;gt;" style="text;html=1;strokeColor=none;fillColor=none;align=center;verticalAlign=middle;whiteSpace=wrap;rounded=0;fontSize=13;" parent="1" vertex="1">
                    <mxGeometry x="247" y="865.5" width="391" height="30" as="geometry"/>
                </mxCell>
                <mxCell id="52" value="Built by &lt;u&gt;Atman&lt;/u&gt;. The source code is available on &lt;u&gt;GitHub&lt;/u&gt;." style="text;html=1;strokeColor=none;fillColor=none;align=left;verticalAlign=middle;whiteSpace=wrap;rounded=0;fontSize=13;" parent="1" vertex="1">
                    <mxGeometry x="107.5" y="935.5" width="391" height="30" as="geometry"/>
                </mxCell>
                <mxCell id="55" value="" style="verticalLabelPosition=bottom;html=1;verticalAlign=top;align=center;strokeColor=none;fillColor=#00BEF2;shape=mxgraph.azure.user;" parent="1" vertex="1">
                    <mxGeometry x="1003.75" y="391" width="28.5" height="30" as="geometry"/>
                </mxCell>
                <mxCell id="58" value="{ユーザー名}さん" style="text;html=1;strokeColor=none;fillColor=none;align=center;verticalAlign=middle;whiteSpace=wrap;rounded=0;" parent="1" vertex="1">
                    <mxGeometry x="1050" y="391" width="100" height="30" as="geometry"/>
                </mxCell>
                <mxCell id="61" style="edgeStyle=none;html=1;exitX=0;exitY=0.5;exitDx=0;exitDy=0;endArrow=none;endFill=0;dashed=1;" parent="1" source="60" target="58" edge="1">
                    <mxGeometry relative="1" as="geometry"/>
                </mxCell>
                <mxCell id="60" value="・OAuthでログインした場合に画像が存在する際は、そちらを表示する。" style="rounded=0;whiteSpace=wrap;html=1;fillColor=none;align=left;" parent="1" vertex="1">
                    <mxGeometry x="1216.25" y="343.5" width="190" height="60" as="geometry"/>
                </mxCell>
                <mxCell id="65" value="" style="html=1;shadow=0;dashed=0;shape=mxgraph.bootstrap.rrect;rSize=5;fillColor=#ffffff;strokeColor=#999999;" parent="1" vertex="1">
                    <mxGeometry x="990" y="443.5" width="170" height="150" as="geometry"/>
                </mxCell>
                <mxCell id="66" value="自分の記事" style="fillColor=none;strokeColor=none;align=left;spacing=20;fontSize=14;" parent="65" vertex="1">
                    <mxGeometry width="170" height="30" relative="1" as="geometry">
                        <mxPoint y="10" as="offset"/>
                    </mxGeometry>
                </mxCell>
                <mxCell id="67" value="設定" style="fillColor=none;strokeColor=none;align=left;spacing=20;fontSize=14;" parent="65" vertex="1">
                    <mxGeometry width="170" height="30" relative="1" as="geometry">
                        <mxPoint y="40" as="offset"/>
                    </mxGeometry>
                </mxCell>
                <mxCell id="69" value="" style="shape=line;strokeColor=#999999;perimeter=none;resizeWidth=1;fillColor=none;" parent="65" vertex="1">
                    <mxGeometry width="170" height="10" relative="1" as="geometry">
                        <mxPoint y="100" as="offset"/>
                    </mxGeometry>
                </mxCell>
                <mxCell id="70" value="ログアウト" style="fillColor=none;strokeColor=none;align=left;spacing=20;fontSize=14;" parent="65" vertex="1">
                    <mxGeometry width="170" height="30" relative="1" as="geometry">
                        <mxPoint y="110" as="offset"/>
                    </mxGeometry>
                </mxCell>
                <mxCell id="71" value="・ドロップダウンメニュー&lt;br&gt;・設定は、Credencialログインの場合のパスワード変更機能などを持たせる。" style="rounded=0;whiteSpace=wrap;html=1;fillColor=none;align=left;" parent="1" vertex="1">
                    <mxGeometry x="1216.25" y="519" width="160" height="84.5" as="geometry"/>
                </mxCell>
                <mxCell id="72" style="edgeStyle=none;html=1;endArrow=none;endFill=0;dashed=1;" parent="1" source="71" target="65" edge="1">
                    <mxGeometry relative="1" as="geometry">
                        <mxPoint x="1178.88" y="623.5" as="sourcePoint"/>
                        <mxPoint x="1036.2530000000002" y="699.3900000000001" as="targetPoint"/>
                    </mxGeometry>
                </mxCell>
                <mxCell id="78" style="edgeStyle=orthogonalEdgeStyle;curved=1;html=1;exitX=1;exitY=0.5;exitDx=0;exitDy=0;exitPerimeter=0;entryX=0;entryY=0.5;entryDx=0;entryDy=0;endArrow=classic;endFill=1;" parent="1" source="75" target="76" edge="1">
                    <mxGeometry relative="1" as="geometry"/>
                </mxCell>
                <mxCell id="75" value="「Log in」ボタンを&lt;br&gt;クリックする" style="verticalLabelPosition=middle;verticalAlign=middle;html=1;shape=mxgraph.basic.6_point_star;fillColor=none;labelPosition=center;align=center;" parent="1" vertex="1">
                    <mxGeometry x="260" y="107.5" width="150" height="70" as="geometry"/>
                </mxCell>
                <mxCell id="80" style="edgeStyle=orthogonalEdgeStyle;curved=1;html=1;exitX=1;exitY=0.5;exitDx=0;exitDy=0;entryX=0;entryY=0.5;entryDx=0;entryDy=0;endArrow=classic;endFill=1;" parent="1" source="76" target="79" edge="1">
                    <mxGeometry relative="1" as="geometry"/>
                </mxCell>
                <mxCell id="76" value="ログインする" style="ellipse;whiteSpace=wrap;html=1;fillColor=none;" parent="1" vertex="1">
                    <mxGeometry x="460" y="118.75" width="120" height="47.5" as="geometry"/>
                </mxCell>
                <mxCell id="79" value="ヘッダーのLog inボタンを変更する" style="ellipse;whiteSpace=wrap;html=1;fillColor=none;" parent="1" vertex="1">
                    <mxGeometry x="685" y="118.75" width="120" height="47.5" as="geometry"/>
                </mxCell>
                <mxCell id="81" value="Log in" style="rounded=1;html=1;shadow=0;dashed=0;whiteSpace=wrap;fontSize=10;fillColor=#666666;align=center;strokeColor=#4D4D4D;fontColor=#ffffff;" parent="1" vertex="1">
                    <mxGeometry x="840" y="396" width="90" height="20" as="geometry"/>
                </mxCell>
                <mxCell id="82" value="" style="shape=singleArrow;whiteSpace=wrap;html=1;fillColor=none;arrowWidth=0.48326384226481117;arrowSize=0.3520952224731445;" parent="1" vertex="1">
                    <mxGeometry x="950" y="390" width="30" height="31" as="geometry"/>
                </mxCell>
                <mxCell id="87" value="" style="group" parent="1" vertex="1" connectable="0">
                    <mxGeometry x="1554" y="440" width="390" height="60" as="geometry"/>
                </mxCell>
                <mxCell id="88" value="絵文字" style="ellipse;whiteSpace=wrap;html=1;aspect=fixed;fontSize=15;fillColor=none;" parent="87" vertex="1">
                    <mxGeometry y="5" width="50" height="50" as="geometry"/>
                </mxCell>
                <mxCell id="89" value="{タイトル}" style="text;html=1;strokeColor=none;fillColor=none;align=left;verticalAlign=middle;whiteSpace=wrap;rounded=0;fontSize=13;" parent="87" vertex="1">
                    <mxGeometry x="69" width="260" height="30" as="geometry"/>
                </mxCell>
                <mxCell id="90" value="@{タグ}　{更新日 YYYY/MM/DD}" style="text;html=1;strokeColor=none;fillColor=none;align=left;verticalAlign=middle;whiteSpace=wrap;rounded=0;fontSize=13;" parent="87" vertex="1">
                    <mxGeometry x="69" y="30" width="260" height="30" as="geometry"/>
                </mxCell>
                <mxCell id="103" value="&lt;span style=&quot;font-family: &amp;quot;Hiragino Kaku Gothic ProN&amp;quot;, &amp;quot;Hiragino Sans&amp;quot;, Meiryo, sans-serif; font-size: 18px; text-align: start;&quot;&gt;⋮&lt;/span&gt;" style="rounded=1;html=1;shadow=0;dashed=0;whiteSpace=wrap;fontSize=10;fillColor=#666666;align=center;strokeColor=#4D4D4D;fontColor=#ffffff;" parent="87" vertex="1">
                    <mxGeometry x="300" y="20" width="30" height="20" as="geometry"/>
                </mxCell>
                <mxCell id="91" value="新規投稿" style="rounded=1;html=1;shadow=0;dashed=0;whiteSpace=wrap;fontSize=10;fillColor=#666666;align=center;strokeColor=#4D4D4D;fontColor=#ffffff;" parent="1" vertex="1">
                    <mxGeometry x="1554" y="389.5" width="90" height="20" as="geometry"/>
                </mxCell>
                <mxCell id="93" value="" style="group" parent="1" vertex="1" connectable="0">
                    <mxGeometry x="1554" y="504.5" width="340" height="60" as="geometry"/>
                </mxCell>
                <mxCell id="94" value="絵文字" style="ellipse;whiteSpace=wrap;html=1;aspect=fixed;fontSize=15;fillColor=none;" parent="93" vertex="1">
                    <mxGeometry y="5" width="50" height="50" as="geometry"/>
                </mxCell>
                <mxCell id="95" value="{タイトル}" style="text;html=1;strokeColor=none;fillColor=none;align=left;verticalAlign=middle;whiteSpace=wrap;rounded=0;fontSize=13;" parent="93" vertex="1">
                    <mxGeometry x="69" width="260" height="30" as="geometry"/>
                </mxCell>
                <mxCell id="96" value="@{タグ}　{更新日 YYYY/MM/DD}" style="text;html=1;strokeColor=none;fillColor=none;align=left;verticalAlign=middle;whiteSpace=wrap;rounded=0;fontSize=13;" parent="93" vertex="1">
                    <mxGeometry x="69" y="30" width="260" height="30" as="geometry"/>
                </mxCell>
                <mxCell id="104" value="&lt;span style=&quot;font-family: &amp;quot;Hiragino Kaku Gothic ProN&amp;quot;, &amp;quot;Hiragino Sans&amp;quot;, Meiryo, sans-serif; font-size: 18px; text-align: start;&quot;&gt;⋮&lt;/span&gt;" style="rounded=1;html=1;shadow=0;dashed=0;whiteSpace=wrap;fontSize=10;fillColor=#666666;align=center;strokeColor=#4D4D4D;fontColor=#ffffff;" parent="93" vertex="1">
                    <mxGeometry x="300" y="20" width="30" height="20" as="geometry"/>
                </mxCell>
                <mxCell id="98" value="" style="group" parent="1" vertex="1" connectable="0">
                    <mxGeometry x="1554" y="574.5" width="340" height="60" as="geometry"/>
                </mxCell>
                <mxCell id="99" value="絵文字" style="ellipse;whiteSpace=wrap;html=1;aspect=fixed;fontSize=15;fillColor=none;" parent="98" vertex="1">
                    <mxGeometry y="5" width="50" height="50" as="geometry"/>
                </mxCell>
                <mxCell id="100" value="{タイトル}" style="text;html=1;strokeColor=none;fillColor=none;align=left;verticalAlign=middle;whiteSpace=wrap;rounded=0;fontSize=13;" parent="98" vertex="1">
                    <mxGeometry x="69" width="260" height="30" as="geometry"/>
                </mxCell>
                <mxCell id="101" value="@{タグ}　{更新日 YYYY/MM/DD}" style="text;html=1;strokeColor=none;fillColor=none;align=left;verticalAlign=middle;whiteSpace=wrap;rounded=0;fontSize=13;" parent="98" vertex="1">
                    <mxGeometry x="69" y="30" width="260" height="30" as="geometry"/>
                </mxCell>
                <mxCell id="105" value="&lt;span style=&quot;font-family: &amp;quot;Hiragino Kaku Gothic ProN&amp;quot;, &amp;quot;Hiragino Sans&amp;quot;, Meiryo, sans-serif; font-size: 18px; text-align: start;&quot;&gt;⋮&lt;/span&gt;" style="rounded=1;html=1;shadow=0;dashed=0;whiteSpace=wrap;fontSize=10;fillColor=#666666;align=center;strokeColor=#4D4D4D;fontColor=#ffffff;" parent="98" vertex="1">
                    <mxGeometry x="300" y="20" width="30" height="20" as="geometry"/>
                </mxCell>
                <mxCell id="106" value="Topページ" style="rounded=1;whiteSpace=wrap;html=1;fillColor=none;fontStyle=1" parent="1" vertex="1">
                    <mxGeometry x="77.5" y="78.75" width="85" height="40" as="geometry"/>
                </mxCell>
                <mxCell id="130" style="edgeStyle=orthogonalEdgeStyle;curved=1;html=1;exitX=1;exitY=0.5;exitDx=0;exitDy=0;fontColor=#FF0000;endArrow=classic;endFill=1;" parent="1" source="107" target="129" edge="1">
                    <mxGeometry relative="1" as="geometry"/>
                </mxCell>
                <mxCell id="107" value="自分の記事一覧ページ" style="rounded=1;whiteSpace=wrap;html=1;fillColor=none;fontStyle=1" parent="1" vertex="1">
                    <mxGeometry x="1524" y="245" width="130" height="40" as="geometry"/>
                </mxCell>
                <mxCell id="108" style="edgeStyle=orthogonalEdgeStyle;curved=1;html=1;exitX=1;exitY=0.5;exitDx=0;exitDy=0;endArrow=classic;endFill=1;entryX=0;entryY=0.5;entryDx=0;entryDy=0;entryPerimeter=0;" parent="1" source="106" target="75" edge="1">
                    <mxGeometry relative="1" as="geometry">
                        <mxPoint x="420" y="125" as="sourcePoint"/>
                        <mxPoint x="270" y="120" as="targetPoint"/>
                    </mxGeometry>
                </mxCell>
                <mxCell id="109" value="「ユーザー」ボタンを&lt;br&gt;クリックする" style="verticalLabelPosition=middle;verticalAlign=middle;html=1;shape=mxgraph.basic.6_point_star;fillColor=none;labelPosition=center;align=center;" parent="1" vertex="1">
                    <mxGeometry x="260" y="216.5" width="150" height="70" as="geometry"/>
                </mxCell>
                <mxCell id="110" value="ドロップダウンメニューを表示する" style="ellipse;whiteSpace=wrap;html=1;fillColor=none;" parent="1" vertex="1">
                    <mxGeometry x="460" y="227.75" width="120" height="47.5" as="geometry"/>
                </mxCell>
                <mxCell id="111" value="「自分の記事」を&lt;br&gt;クリックする" style="verticalLabelPosition=middle;verticalAlign=middle;html=1;shape=mxgraph.basic.6_point_star;fillColor=none;labelPosition=center;align=center;" parent="1" vertex="1">
                    <mxGeometry x="670" y="216.5" width="150" height="70" as="geometry"/>
                </mxCell>
                <mxCell id="112" style="edgeStyle=orthogonalEdgeStyle;curved=1;html=1;exitX=1;exitY=0.5;exitDx=0;exitDy=0;endArrow=classic;endFill=1;entryX=0;entryY=0.5;entryDx=0;entryDy=0;entryPerimeter=0;" parent="1" source="106" target="109" edge="1">
                    <mxGeometry relative="1" as="geometry">
                        <mxPoint x="172.5000000000001" y="108.75000000000006" as="sourcePoint"/>
                        <mxPoint x="269.9999999999999" y="152.50000000000006" as="targetPoint"/>
                    </mxGeometry>
                </mxCell>
                <mxCell id="113" style="edgeStyle=orthogonalEdgeStyle;curved=1;html=1;exitX=1;exitY=0.5;exitDx=0;exitDy=0;exitPerimeter=0;entryX=0;entryY=0.5;entryDx=0;entryDy=0;endArrow=classic;endFill=1;" parent="1" source="109" target="110" edge="1">
                    <mxGeometry relative="1" as="geometry">
                        <mxPoint x="420" y="152.50000000000006" as="sourcePoint"/>
                        <mxPoint x="470" y="152.50000000000006" as="targetPoint"/>
                    </mxGeometry>
                </mxCell>
                <mxCell id="114" style="edgeStyle=orthogonalEdgeStyle;curved=1;html=1;exitX=1;exitY=0.5;exitDx=0;exitDy=0;entryX=0;entryY=0.5;entryDx=0;entryDy=0;endArrow=classic;endFill=1;entryPerimeter=0;" parent="1" source="110" target="111" edge="1">
                    <mxGeometry relative="1" as="geometry">
                        <mxPoint x="590" y="152.50000000000006" as="sourcePoint"/>
                        <mxPoint x="695" y="152.50000000000006" as="targetPoint"/>
                    </mxGeometry>
                </mxCell>
                <mxCell id="115" value="Topページ" style="text;html=1;strokeColor=none;fillColor=none;align=left;verticalAlign=middle;whiteSpace=wrap;rounded=0;fontStyle=5" parent="1" vertex="1">
                    <mxGeometry x="77.5" y="330" width="100" height="30" as="geometry"/>
                </mxCell>
                <mxCell id="116" style="edgeStyle=orthogonalEdgeStyle;curved=1;html=1;exitX=1;exitY=0.5;exitDx=0;exitDy=0;endArrow=classic;endFill=1;exitPerimeter=0;" parent="1" source="111" target="107" edge="1">
                    <mxGeometry relative="1" as="geometry">
                        <mxPoint x="590" y="261.5" as="sourcePoint"/>
                        <mxPoint x="990" y="270" as="targetPoint"/>
                    </mxGeometry>
                </mxCell>
                <mxCell id="117" value="自分の記事一覧ページ(/users/$userId/posts)" style="text;html=1;strokeColor=none;fillColor=none;align=left;verticalAlign=middle;whiteSpace=wrap;rounded=0;fontStyle=5" parent="1" vertex="1">
                    <mxGeometry x="1520" y="323" width="290" height="30" as="geometry"/>
                </mxCell>
                <mxCell id="118" value="" style="html=1;shadow=0;dashed=0;shape=mxgraph.bootstrap.rrect;rSize=5;fillColor=#ffffff;strokeColor=#999999;" parent="1" vertex="1">
                    <mxGeometry x="1850" y="629.5" width="210" height="150" as="geometry"/>
                </mxCell>
                <mxCell id="119" value="編集" style="fillColor=none;strokeColor=none;align=left;spacing=20;fontSize=14;" parent="118" vertex="1">
                    <mxGeometry width="170" height="30" relative="1" as="geometry">
                        <mxPoint y="10" as="offset"/>
                    </mxGeometry>
                </mxCell>
                <mxCell id="120" value="下書きに戻す (or 公開する)" style="fillColor=none;strokeColor=none;align=left;spacing=20;fontSize=14;" parent="118" vertex="1">
                    <mxGeometry width="170" height="30" relative="1" as="geometry">
                        <mxPoint y="40" as="offset"/>
                    </mxGeometry>
                </mxCell>
                <mxCell id="121" value="" style="shape=line;strokeColor=#999999;perimeter=none;resizeWidth=1;fillColor=none;" parent="118" vertex="1">
                    <mxGeometry width="210" height="10" relative="1" as="geometry">
                        <mxPoint y="100" as="offset"/>
                    </mxGeometry>
                </mxCell>
                <mxCell id="123" value="削除" style="fillColor=none;strokeColor=none;align=left;spacing=20;fontSize=14;fontColor=#FF0000;" parent="118" vertex="1">
                    <mxGeometry y="110" width="198.33333333333334" height="30" as="geometry"/>
                </mxCell>
                <mxCell id="126" value="・ドロップダウンメニュー" style="rounded=0;whiteSpace=wrap;html=1;fillColor=none;align=left;" parent="1" vertex="1">
                    <mxGeometry x="1960" y="564.5" width="160" height="46.75" as="geometry"/>
                </mxCell>
                <mxCell id="127" style="edgeStyle=none;html=1;endArrow=none;endFill=0;dashed=1;" parent="1" source="126" target="118" edge="1">
                    <mxGeometry relative="1" as="geometry">
                        <mxPoint x="1256.25" y="535.2923728813557" as="sourcePoint"/>
                        <mxPoint x="1200" y="524.4237288135594" as="targetPoint"/>
                    </mxGeometry>
                </mxCell>
                <mxCell id="132" style="edgeStyle=orthogonalEdgeStyle;curved=1;html=1;exitX=1;exitY=0.5;exitDx=0;exitDy=0;exitPerimeter=0;fontColor=#FF0000;endArrow=classic;endFill=1;" parent="1" source="129" target="131" edge="1">
                    <mxGeometry relative="1" as="geometry"/>
                </mxCell>
                <mxCell id="129" value="「新規投稿」ボタンを&lt;br&gt;クリックする" style="verticalLabelPosition=middle;verticalAlign=middle;html=1;shape=mxgraph.basic.6_point_star;fillColor=none;labelPosition=center;align=center;" parent="1" vertex="1">
                    <mxGeometry x="1750" y="230" width="150" height="70" as="geometry"/>
                </mxCell>
                <mxCell id="152" style="edgeStyle=orthogonalEdgeStyle;curved=1;html=1;exitX=1;exitY=0.5;exitDx=0;exitDy=0;fontColor=#000000;endArrow=classic;endFill=1;" parent="1" source="131" target="151" edge="1">
                    <mxGeometry relative="1" as="geometry"/>
                </mxCell>
                <mxCell id="156" style="edgeStyle=orthogonalEdgeStyle;curved=1;html=1;exitX=1;exitY=0.5;exitDx=0;exitDy=0;fontColor=#000000;endArrow=classic;endFill=1;" parent="1" source="131" target="155" edge="1">
                    <mxGeometry relative="1" as="geometry"/>
                </mxCell>
                <mxCell id="131" value="記事作成ページ" style="rounded=1;whiteSpace=wrap;html=1;fillColor=none;fontStyle=1" parent="1" vertex="1">
                    <mxGeometry x="2200" y="245" width="130" height="40" as="geometry"/>
                </mxCell>
                <mxCell id="133" value="記事作成ページ(/uses/$userId/posts/new)" style="text;html=1;strokeColor=none;fillColor=none;align=left;verticalAlign=middle;whiteSpace=wrap;rounded=0;fontStyle=5" parent="1" vertex="1">
                    <mxGeometry x="2200" y="319.5" width="280" height="43" as="geometry"/>
                </mxCell>
                <mxCell id="134" value="絵文字" style="text;html=1;strokeColor=none;fillColor=none;align=left;verticalAlign=middle;whiteSpace=wrap;rounded=0;fontColor=#000000;" parent="1" vertex="1">
                    <mxGeometry x="2220" y="412.5" width="60" height="30" as="geometry"/>
                </mxCell>
                <mxCell id="135" value="" style="rounded=1;whiteSpace=wrap;html=1;fontColor=#000000;fillColor=none;" parent="1" vertex="1">
                    <mxGeometry x="2220" y="446" width="50" height="27" as="geometry"/>
                </mxCell>
                <mxCell id="136" value="記事タイトル" style="text;html=1;strokeColor=none;fillColor=none;align=left;verticalAlign=middle;whiteSpace=wrap;rounded=0;fontColor=#000000;" parent="1" vertex="1">
                    <mxGeometry x="2300" y="413" width="90" height="30" as="geometry"/>
                </mxCell>
                <mxCell id="137" value="" style="rounded=1;whiteSpace=wrap;html=1;fontColor=#000000;fillColor=none;" parent="1" vertex="1">
                    <mxGeometry x="2300" y="446" width="270" height="27" as="geometry"/>
                </mxCell>
                <mxCell id="138" value="内容 *マークダウンで記載すること" style="text;html=1;strokeColor=none;fillColor=none;align=left;verticalAlign=middle;whiteSpace=wrap;rounded=0;fontColor=#000000;" parent="1" vertex="1">
                    <mxGeometry x="2220" y="498" width="240" height="30" as="geometry"/>
                </mxCell>
                <mxCell id="139" value="戻る" style="rounded=1;html=1;shadow=0;dashed=0;whiteSpace=wrap;fontSize=10;fillColor=#666666;align=center;strokeColor=#4D4D4D;fontColor=#ffffff;" parent="1" vertex="1">
                    <mxGeometry x="2220" y="378" width="50" height="20" as="geometry"/>
                </mxCell>
                <mxCell id="140" value="下書きに保存" style="rounded=1;html=1;shadow=0;dashed=0;whiteSpace=wrap;fontSize=10;fillColor=#666666;align=center;strokeColor=#4D4D4D;fontColor=#ffffff;" parent="1" vertex="1">
                    <mxGeometry x="2390" y="378" width="80" height="20" as="geometry"/>
                </mxCell>
                <mxCell id="141" value="公開に進む" style="rounded=1;html=1;shadow=0;dashed=0;whiteSpace=wrap;fontSize=10;fillColor=#666666;align=center;strokeColor=#4D4D4D;fontColor=#ffffff;" parent="1" vertex="1">
                    <mxGeometry x="2490" y="377.5" width="80" height="20" as="geometry"/>
                </mxCell>
                <mxCell id="142" value="" style="strokeWidth=1;html=1;shadow=0;dashed=0;shape=mxgraph.android.rrect;rSize=0;fillColor=none;strokeColor=none;fontSize=15;fontStyle=0" parent="1" vertex="1">
                    <mxGeometry x="2220" y="542.5" width="270" height="30" as="geometry"/>
                </mxCell>
                <mxCell id="143" value="プレビュー" style="strokeWidth=1;html=1;shadow=0;dashed=0;shape=mxgraph.android.anchor;fontStyle=0;fontColor=#666666;fontSize=15;" parent="142" vertex="1">
                    <mxGeometry x="130.00058823529412" width="100" height="30" as="geometry"/>
                </mxCell>
                <mxCell id="145" value="コード" style="strokeWidth=1;html=1;shadow=0;dashed=0;shape=mxgraph.android.rrect;rSize=0;fontStyle=0;fillColor=none;strokeColor=none;fontColor=#666666;fontSize=15;" parent="142" vertex="1">
                    <mxGeometry width="100" height="30" as="geometry"/>
                </mxCell>
                <mxCell id="146" value="" style="strokeWidth=1;html=1;shadow=0;dashed=0;shape=mxgraph.android.rrect;rSize=0;fillColor=#33b5e5;strokeColor=none;fontSize=17;" parent="145" vertex="1">
                    <mxGeometry y="27.000000000000007" width="99.99999999999996" height="3" as="geometry"/>
                </mxCell>
                <mxCell id="149" value="## タイトル&lt;br&gt;&lt;br&gt;テスト記事...&lt;br&gt;&lt;br&gt;```ts&lt;br&gt;const a = 1;&lt;br&gt;const b = 2;&lt;br&gt;```" style="rounded=1;whiteSpace=wrap;html=1;fontColor=#000000;fillColor=none;arcSize=8;align=left;verticalAlign=top;spacing=14;" parent="1" vertex="1">
                    <mxGeometry x="2220" y="579" width="350" height="263.5" as="geometry"/>
                </mxCell>
                <mxCell id="154" style="edgeStyle=orthogonalEdgeStyle;curved=1;html=1;exitX=1;exitY=0.5;exitDx=0;exitDy=0;exitPerimeter=0;fontColor=#000000;endArrow=classic;endFill=1;" parent="1" source="151" target="153" edge="1">
                    <mxGeometry relative="1" as="geometry"/>
                </mxCell>
                <mxCell id="151" value="「下書きに保存」ボタンを&lt;br&gt;クリックする" style="verticalLabelPosition=middle;verticalAlign=middle;html=1;shape=mxgraph.basic.6_point_star;fillColor=none;labelPosition=center;align=center;" parent="1" vertex="1">
                    <mxGeometry x="2700" y="230" width="150" height="70" as="geometry"/>
                </mxCell>
                <mxCell id="153" value="・下書き保存したことをソナーで表示&lt;br&gt;・DBにデータを保存" style="ellipse;whiteSpace=wrap;html=1;fillColor=none;" parent="1" vertex="1">
                    <mxGeometry x="2960" y="241.25" width="120" height="47.5" as="geometry"/>
                </mxCell>
                <mxCell id="159" style="edgeStyle=orthogonalEdgeStyle;curved=1;html=1;exitX=1;exitY=0.5;exitDx=0;exitDy=0;exitPerimeter=0;fontColor=#000000;endArrow=classic;endFill=1;" parent="1" source="155" target="157" edge="1">
                    <mxGeometry relative="1" as="geometry"/>
                </mxCell>
                <mxCell id="155" value="「公開に進む」ボタンを&lt;br&gt;クリックする" style="verticalLabelPosition=middle;verticalAlign=middle;html=1;shape=mxgraph.basic.6_point_star;fillColor=none;labelPosition=center;align=center;" parent="1" vertex="1">
                    <mxGeometry x="2700" y="370" width="150" height="70" as="geometry"/>
                </mxCell>
                <mxCell id="157" value="公開設定ページ" style="rounded=1;whiteSpace=wrap;html=1;fillColor=none;fontStyle=1" parent="1" vertex="1">
                    <mxGeometry x="2910" y="385.5" width="130" height="40" as="geometry"/>
                </mxCell>
                <mxCell id="158" value="公開設定ページ" style="text;html=1;strokeColor=none;fillColor=none;align=left;verticalAlign=middle;whiteSpace=wrap;rounded=0;fontStyle=5" parent="1" vertex="1">
                    <mxGeometry x="2910" y="457" width="146" height="43" as="geometry"/>
                </mxCell>
                <mxCell id="160" value="戻る" style="rounded=1;html=1;shadow=0;dashed=0;whiteSpace=wrap;fontSize=10;fillColor=#666666;align=center;strokeColor=#4D4D4D;fontColor=#ffffff;" parent="1" vertex="1">
                    <mxGeometry x="2920" y="519" width="50" height="20" as="geometry"/>
                </mxCell>
                <mxCell id="161" value="投稿する" style="rounded=1;html=1;shadow=0;dashed=0;whiteSpace=wrap;fontSize=10;fillColor=#666666;align=center;strokeColor=#4D4D4D;fontColor=#ffffff;" parent="1" vertex="1">
                    <mxGeometry x="3140" y="519" width="90" height="20" as="geometry"/>
                </mxCell>
                <mxCell id="162" value="タグ" style="text;html=1;strokeColor=none;fillColor=none;align=left;verticalAlign=middle;whiteSpace=wrap;rounded=0;fontColor=#000000;" parent="1" vertex="1">
                    <mxGeometry x="2920" y="555" width="130" height="30" as="geometry"/>
                </mxCell>
                <mxCell id="163" value="" style="rounded=1;whiteSpace=wrap;html=1;fontColor=#000000;fillColor=none;" parent="1" vertex="1">
                    <mxGeometry x="2920" y="591" width="310" height="49" as="geometry"/>
                </mxCell>
                <mxCell id="164" value="C#&amp;nbsp; ✖" style="rounded=1;whiteSpace=wrap;html=1;fontColor=#000000;fillColor=none;" parent="1" vertex="1">
                    <mxGeometry x="2940" y="602" width="50" height="27" as="geometry"/>
                </mxCell>
                <mxCell id="166" value="{アイコン}{タグ名}" style="rounded=1;whiteSpace=wrap;html=1;fontColor=#000000;fillColor=none;" parent="1" vertex="1">
                    <mxGeometry x="2936" y="655.5" width="104" height="24.5" as="geometry"/>
                </mxCell>
                <mxCell id="171" style="html=1;exitX=1;exitY=0.5;exitDx=0;exitDy=0;fontColor=#000000;endArrow=none;endFill=0;dashed=1;" parent="1" source="167" target="170" edge="1">
                    <mxGeometry relative="1" as="geometry"/>
                </mxCell>
                <mxCell id="167" value="{アイコン}{タグ名}" style="rounded=1;whiteSpace=wrap;html=1;fontColor=#000000;fillColor=none;" parent="1" vertex="1">
                    <mxGeometry x="3050" y="655.5" width="104" height="24.5" as="geometry"/>
                </mxCell>
                <mxCell id="168" value="{アイコン}{タグ名}" style="rounded=1;whiteSpace=wrap;html=1;fontColor=#000000;fillColor=none;" parent="1" vertex="1">
                    <mxGeometry x="2936" y="692.25" width="104" height="24.5" as="geometry"/>
                </mxCell>
                <mxCell id="169" value="{アイコン}{タグ名}" style="rounded=1;whiteSpace=wrap;html=1;fontColor=#000000;fillColor=none;" parent="1" vertex="1">
                    <mxGeometry x="3050" y="692.25" width="104" height="24.5" as="geometry"/>
                </mxCell>
                <mxCell id="170" value="・アイコンをクリックするとタグに追加される。&lt;br&gt;・右クリックでタグ編集コンポーネントを表示する（右側からSheet表示して操作）。" style="rounded=0;whiteSpace=wrap;html=1;fillColor=none;align=left;" parent="1" vertex="1">
                    <mxGeometry x="3350" y="574.5" width="160" height="90" as="geometry"/>
                </mxCell>
                <mxCell id="172" value="新規タグ登録" style="rounded=1;html=1;shadow=0;dashed=0;whiteSpace=wrap;fontSize=10;fillColor=#666666;align=center;strokeColor=#4D4D4D;fontColor=#ffffff;" parent="1" vertex="1">
                    <mxGeometry x="2920" y="740" width="110" height="20" as="geometry"/>
                </mxCell>
                <mxCell id="174" value="「新規タグ登録」ボタンを&lt;br&gt;クリックする" style="verticalLabelPosition=middle;verticalAlign=middle;html=1;shape=mxgraph.basic.6_point_star;fillColor=none;labelPosition=center;align=center;" parent="1" vertex="1">
                    <mxGeometry x="3180" y="370" width="150" height="70" as="geometry"/>
                </mxCell>
                <mxCell id="176" style="edgeStyle=orthogonalEdgeStyle;curved=1;html=1;fontColor=#000000;endArrow=classic;endFill=1;exitX=1;exitY=0.5;exitDx=0;exitDy=0;exitPerimeter=0;" parent="1" source="157" target="174" edge="1">
                    <mxGeometry relative="1" as="geometry">
                        <mxPoint x="3040" y="424.5000000000001" as="sourcePoint"/>
                        <mxPoint x="3140" y="330" as="targetPoint"/>
                    </mxGeometry>
                </mxCell>
                <mxCell id="177" value="タグ登録ページ" style="rounded=1;whiteSpace=wrap;html=1;fillColor=none;fontStyle=1" parent="1" vertex="1">
                    <mxGeometry x="3560" y="385.5" width="130" height="40" as="geometry"/>
                </mxCell>
                <mxCell id="178" style="edgeStyle=orthogonalEdgeStyle;curved=1;html=1;fontColor=#000000;endArrow=classic;endFill=1;exitX=1;exitY=0.5;exitDx=0;exitDy=0;exitPerimeter=0;" parent="1" source="174" target="177" edge="1">
                    <mxGeometry relative="1" as="geometry">
                        <mxPoint x="3250" y="564.5000000000001" as="sourcePoint"/>
                        <mxPoint x="3350" y="470" as="targetPoint"/>
                    </mxGeometry>
                </mxCell>
                <mxCell id="179" value="タグ登録ページ" style="text;html=1;strokeColor=none;fillColor=none;align=left;verticalAlign=middle;whiteSpace=wrap;rounded=0;fontStyle=5" parent="1" vertex="1">
                    <mxGeometry x="3560" y="457" width="146" height="43" as="geometry"/>
                </mxCell>
                <mxCell id="180" value="戻る" style="rounded=1;html=1;shadow=0;dashed=0;whiteSpace=wrap;fontSize=10;fillColor=#666666;align=center;strokeColor=#4D4D4D;fontColor=#ffffff;" parent="1" vertex="1">
                    <mxGeometry x="3580" y="518" width="50" height="20" as="geometry"/>
                </mxCell>
                <mxCell id="181" value="登録する" style="rounded=1;html=1;shadow=0;dashed=0;whiteSpace=wrap;fontSize=10;fillColor=#666666;align=center;strokeColor=#4D4D4D;fontColor=#ffffff;" parent="1" vertex="1">
                    <mxGeometry x="3680" y="518" width="90" height="20" as="geometry"/>
                </mxCell>
                <mxCell id="182" value="タグ名称" style="text;html=1;strokeColor=none;fillColor=none;align=left;verticalAlign=middle;whiteSpace=wrap;rounded=0;fontColor=#000000;" parent="1" vertex="1">
                    <mxGeometry x="3580" y="554" width="130" height="30" as="geometry"/>
                </mxCell>
                <mxCell id="183" value="" style="rounded=1;whiteSpace=wrap;html=1;fontColor=#000000;fillColor=none;" parent="1" vertex="1">
                    <mxGeometry x="3580" y="586.5" width="190" height="27" as="geometry"/>
                </mxCell>
                <mxCell id="184" value="ここにドラッグ&amp;amp;ドロップしてね" style="rounded=0;whiteSpace=wrap;html=1;fontColor=#000000;fillColor=none;" parent="1" vertex="1">
                    <mxGeometry x="3583" y="659" width="187" height="104" as="geometry"/>
                </mxCell>
                <mxCell id="185" value="タグ画像" style="text;html=1;strokeColor=none;fillColor=none;align=left;verticalAlign=middle;whiteSpace=wrap;rounded=0;fontColor=#000000;" parent="1" vertex="1">
                    <mxGeometry x="3580" y="629" width="130" height="30" as="geometry"/>
                </mxCell>
                <mxCell id="186" value="ファイルを選択" style="rounded=1;html=1;shadow=0;dashed=0;whiteSpace=wrap;fontSize=10;fillColor=#666666;align=center;strokeColor=#4D4D4D;fontColor=#ffffff;" parent="1" vertex="1">
                    <mxGeometry x="3583" y="775" width="90" height="20" as="geometry"/>
                </mxCell>
                <mxCell id="187" value="" style="rounded=0;whiteSpace=wrap;html=1;fillColor=none;" parent="1" vertex="1">
                    <mxGeometry x="3560" y="504.5" width="250" height="314.5" as="geometry"/>
                </mxCell>
            </root>
        </mxGraphModel>
    </diagram>
</mxfile>